<svg width="178" height="178" viewBox="0 0 178 178" fill="none" xmlns="http://www.w3.org/2000/svg">
<rect x="2" y="2" width="174" height="174" rx="87" fill="url(#paint0_linear_10_20)"/>
<rect x="2" y="2" width="174" height="174" rx="87" stroke="url(#paint1_linear_10_20)" stroke-width="4"/>
<g clip-path="url(#clip0_10_20)">
<path d="M73.292 17.8698C73.1084 16.1336 72.884 14.3975 72.6188 12.651C73.19 12.775 73.7613 12.9094 74.3223 13.054C91.3766 17.5907 104.249 35.2829 107.911 53.4917C108.992 58.8758 109.267 64.3012 108.604 69.4063C108.38 71.1115 108.074 72.7856 107.635 74.3977L107.38 75.3692L108.309 75.0178L108.135 74.5321C108.251 74.8559 108.312 75.0178 108.319 75.0178L108.349 75.0075C108.37 75.0075 108.4 74.9868 108.441 74.9661C108.523 74.9351 108.635 74.8834 108.788 74.8111C109.084 74.6768 109.502 74.4701 110.002 74.2014C111.001 73.6433 112.338 72.7856 113.694 71.5662C116.407 69.117 119.202 65.2003 119.478 59.3925C119.518 58.5968 119.508 57.7597 119.447 56.8813C119.947 57.4807 120.436 58.0801 120.916 58.6794V58.7001L121.028 58.8448C135.716 77.3843 139.5 99.4995 139.5 113.068C139.5 114.071 139.48 115.063 139.439 116.045C138.419 140.888 124.506 157.226 105.463 163.075C105.289 163.127 105.116 163.179 104.953 163.23C104.79 163.282 104.616 163.334 104.453 163.385L104.188 163.458L103.912 163.53C100.077 164.594 95.9769 165.235 91.6623 165.411H91.6113C90.8667 165.442 90.1424 165.463 89.3978 165.463H88.8164C80.9624 165.576 73.7102 164.016 67.3046 161.122C53.8304 155.263 43.661 143.606 40.0094 127.04C39.0608 122.71 38.5406 118.039 38.5406 113.048C38.5406 105.318 40.0604 98.8691 42.6716 92.9476C45.7724 85.9307 50.4032 79.6578 55.8908 72.9303C64.214 62.7304 69.0386 53.2953 71.5478 44.2323C74.057 35.1692 74.2509 26.4988 73.3227 17.8491L73.292 17.8698Z" fill="#0C3149" stroke="url(#paint2_radial_10_20)"/>
<path d="M105.218 83.3678C105.218 85.1866 103.77 86.6541 101.974 86.6541C100.179 86.6541 98.7308 85.1866 98.7308 83.3678C98.7308 81.549 100.179 80.0815 101.974 80.0815C103.77 80.0815 105.218 81.549 105.218 83.3678Z" fill="#B0872C"/>
<path d="M96.381 91.4978C95.9493 95.507 96.0315 99.5367 97.2137 103.731C98.3959 107.935 100.658 112.315 104.574 117.043C107.154 120.158 109.324 123.068 110.783 126.326C112.007 129.071 112.726 132.062 112.726 135.65C112.726 137.963 112.479 140.132 112.037 142.137C110.321 149.826 105.54 155.223 99.208 157.947C96.196 159.294 92.7933 160.014 89.1028 159.962H89.0926H89.0514H89.0103H88.9692H88.9281H88.887H88.8458C88.4963 159.962 88.1571 159.962 87.8076 159.942H87.787C85.7619 159.859 83.8292 159.561 82.0302 159.068L81.8966 159.037L81.7732 159.006C81.691 158.986 81.619 158.955 81.5368 158.934C81.4546 158.914 81.3723 158.883 81.2901 158.862C72.3157 156.138 65.7776 148.562 65.3048 137.038C65.2739 136.575 65.2739 136.123 65.2739 135.66C65.2739 129.369 67.0524 119.11 73.9502 110.516L74.0016 110.454C74.2278 110.166 74.4539 109.889 74.6904 109.611C74.6595 110.012 74.6595 110.403 74.6698 110.773C74.7932 113.466 76.109 115.286 77.3837 116.416C78.0211 116.982 78.6481 117.383 79.121 117.64C79.3575 117.773 79.5528 117.866 79.6864 117.928C79.7584 117.958 79.8098 117.979 79.8509 118C79.8715 118 79.8817 118.01 79.892 118.02H79.9023C79.9023 118.02 79.9297 117.945 79.9845 117.794L79.9023 118.02L80.3443 118.185L80.221 117.732C80.0154 116.982 79.8715 116.211 79.7687 115.419C79.4603 113.045 79.5836 110.536 80.0976 108.038C81.8349 99.5779 87.8898 91.3745 95.8979 89.2671C96.1652 89.1951 96.4324 89.1334 96.6997 89.082C96.5764 89.8839 96.4736 90.696 96.381 91.4978Z" fill="url(#paint3_radial_10_20)"/>
</g>
<defs>
<linearGradient id="paint0_linear_10_20" x1="89" y1="4" x2="89" y2="174" gradientUnits="userSpaceOnUse">
<stop offset="0.035" stop-color="#111111"/>
<stop offset="1" stop-color="#161515"/>
</linearGradient>
<linearGradient id="paint1_linear_10_20" x1="89" y1="4" x2="89" y2="174" gradientUnits="userSpaceOnUse">
<stop offset="0.025" stop-color="#E6C97B"/>
<stop offset="0.125" stop-color="#C4A34C"/>
<stop offset="0.5" stop-color="#AE8428"/>
<stop offset="1" stop-color="#996706"/>
</linearGradient>
<radialGradient id="paint2_radial_10_20" cx="0" cy="0" r="1" gradientUnits="userSpaceOnUse" gradientTransform="translate(89.0205 165.468) rotate(-90.0885) scale(151.911 100.617)">
<stop stop-color="#FFE5A6"/>
<stop offset="0.07" stop-color="#E3C170"/>
<stop offset="0.24" stop-color="#C4A34C"/>
<stop offset="0.52" stop-color="#AE8428"/>
<stop offset="1" stop-color="#774E00"/>
</radialGradient>
<radialGradient id="paint3_radial_10_20" cx="0" cy="0" r="1" gradientUnits="userSpaceOnUse" gradientTransform="translate(90.4906 159.633) rotate(180) scale(67.6626 67.6626)">
<stop stop-color="#D7BB73"/>
<stop offset="0.52" stop-color="#AE8428"/>
<stop offset="1" stop-color="#996706"/>
</radialGradient>
<clipPath id="clip0_10_20">
<rect width="102" height="154" fill="white" transform="translate(38 12)"/>
</clipPath>
</defs>
</svg>
