<svg width="171" height="170" viewBox="0 0 171 170" fill="none" xmlns="http://www.w3.org/2000/svg">
<path d="M170.69 85C170.69 131.944 132.634 170 85.6902 170C38.746 170 0.690186 131.944 0.690186 85C0.690186 38.0558 38.746 0 85.6902 0C132.634 0 170.69 38.0558 170.69 85Z" fill="white"/>
<path fill-rule="evenodd" clip-rule="evenodd" d="M85.6902 165C129.873 165 165.69 129.183 165.69 85C165.69 40.8172 129.873 5 85.6902 5C41.5074 5 5.69019 40.8172 5.69019 85C5.69019 129.183 41.5074 165 85.6902 165ZM85.6902 170C132.634 170 170.69 131.944 170.69 85C170.69 38.0558 132.634 0 85.6902 0C38.746 0 0.690186 38.0558 0.690186 85C0.690186 131.944 38.746 170 85.6902 170Z" fill="black"/>
<path d="M69.9822 13.8698C69.7986 12.1337 69.5742 10.3975 69.309 8.65105C69.8802 8.77506 70.4514 8.90941 71.0124 9.05409C88.0668 13.5908 100.939 31.2829 104.601 49.4917C105.682 54.8759 105.958 60.3013 105.295 65.4064C105.07 67.1115 104.764 68.7857 104.326 70.3978L104.071 71.3692L104.999 71.0178L104.825 70.5321C104.941 70.8559 105.002 71.0178 105.009 71.0178L105.04 71.0075C105.06 71.0075 105.091 70.9868 105.131 70.9662C105.213 70.9352 105.325 70.8835 105.478 70.8112C105.774 70.6768 106.192 70.4701 106.692 70.2014C107.692 69.6434 109.028 68.7857 110.384 67.5662C113.098 65.117 115.892 61.2004 116.168 55.3926C116.209 54.5968 116.198 53.7598 116.137 52.8814C116.637 53.4807 117.127 54.0801 117.606 54.6795V54.7002L117.718 54.8449C132.406 73.3844 136.19 95.4995 136.19 109.068C136.19 110.071 136.17 111.063 136.129 112.045C135.109 136.888 121.196 153.226 102.153 159.075C101.98 159.127 101.806 159.179 101.643 159.23C101.48 159.282 101.306 159.334 101.143 159.385L100.878 159.458L100.603 159.53C96.7674 160.595 92.667 161.235 88.3524 161.411H88.3014C87.5568 161.442 86.8326 161.463 86.088 161.463H85.5066C77.6526 161.576 70.4004 160.016 63.9948 157.122C50.5206 151.263 40.3512 139.606 36.6996 123.04C35.751 118.71 35.2308 114.039 35.2308 109.048C35.2308 101.318 36.7506 94.8691 39.3618 88.9477C42.4626 81.9308 47.0934 75.6579 52.581 68.9303C60.9042 58.7305 65.7288 49.2954 68.238 40.2323C70.7472 31.1692 70.941 22.4989 70.0128 13.8491L69.9822 13.8698Z" fill="black"/>
<path d="M101.908 79.3679C101.908 81.1867 100.46 82.6541 98.6646 82.6541C96.8694 82.6541 95.421 81.1867 95.421 79.3679C95.421 77.549 96.8694 76.0816 98.6646 76.0816C100.46 76.0816 101.908 77.549 101.908 79.3679Z" fill="white"/>
<path d="M93.0712 87.4978C92.6394 91.507 92.7217 95.5367 93.9039 99.731C95.0861 103.935 97.3476 108.315 101.264 113.043C103.845 116.158 106.014 119.068 107.473 122.326C108.697 125.071 109.416 128.062 109.416 131.65C109.416 133.963 109.17 136.132 108.728 138.137C107.011 145.826 102.231 151.223 95.8982 153.947C92.8861 155.294 89.4835 156.014 85.793 155.962H85.536C85.1865 155.962 84.8472 155.962 84.4977 155.942H84.4771C82.452 155.859 80.5194 155.561 78.7204 155.068L78.5867 155.037L78.4634 155.006C78.3811 154.986 78.3092 154.955 78.2269 154.934C78.1447 154.914 78.0625 154.883 77.9802 154.862C69.0058 152.138 62.4678 144.562 61.9949 133.038C61.9641 132.575 61.9641 132.123 61.9641 131.66C61.9641 125.369 63.7425 115.11 70.6403 106.516L70.6917 106.454C70.9179 106.166 71.1441 105.889 71.3805 105.611C71.3497 106.012 71.3497 106.403 71.3599 106.773C71.4833 109.466 72.7991 111.286 74.0738 112.416C74.7112 112.982 75.3383 113.383 75.8112 113.64C76.0476 113.773 76.2429 113.866 76.3765 113.928C76.4485 113.958 76.4999 113.979 76.541 114C76.5616 114 76.5719 114.01 76.5822 114.02H76.5924C76.5924 114.02 76.6198 113.945 76.6747 113.794L76.5924 114.02L77.0345 114.185L76.9111 113.732C76.7055 112.982 76.5616 112.211 76.4588 111.419C76.1504 109.045 76.2738 106.536 76.7878 104.038C78.5251 95.5779 84.5799 87.3745 92.588 85.2671C92.8553 85.1951 93.1226 85.1334 93.3899 85.082C93.2665 85.8839 93.1637 86.696 93.0712 87.4978Z" fill="white"/>
</svg>
